<?xml version="1.0" encoding="UTF-8"?>
<!-- Created with Inkscape (http://www.inkscape.org/) -->
<svg width="554.53mm" height="246.99mm" version="1.1" viewBox="0 0 554.53 246.99" xmlns="http://www.w3.org/2000/svg" xmlns:cc="http://creativecommons.org/ns#" xmlns:dc="http://purl.org/dc/elements/1.1/" xmlns:rdf="http://www.w3.org/1999/02/22-rdf-syntax-ns#">
 <title>logo_cw_role</title>
 <defs>
  <linearGradient id="linearGradient302" x1="1004.9" x2="1004.9" y1="933.11" y2="8.8818e-16" gradientUnits="userSpaceOnUse">
   <stop stop-color="#f00" offset="0"/>
   <stop stop-color="#cdd9e5" offset="1"/>
  </linearGradient>
 </defs>
 <g transform="translate(-380.76 -46.834)" style="mix-blend-mode:normal">
  <g transform="translate(12.401 -.26351)">
   <g fill="#cdd9e5">
    <path d="m581.28 188.76c12.282 2.7278 18.615 9.646 30.459-12.674-4.7342 11.813-8.408 26.675-3.8893 31.155-12.668-4.0815-23.848-8.9742-26.57-18.481z"/>
    <path d="m661.69 158.51c-5.8419-7.4171-5.1811-6.7354-14.789 8.5387 0.7923-4.818 0.11706-8.7162-2.4924-18.286 7.0089-0.47832 14.239 3.3693 17.282 9.7471z"/>
    <path transform="matrix(.26458 0 0 .26458 368.36 47.097)" d="m928.48 433.38-76.055-76.055-291.11 504.21c13.522 1.7577 27.19 2.7026 40.938 2.7031 35.887-0.0669 71.491-6.2102 105.22-18.156 23.634 24.656 22.249 11.134 31.611-11.963 4.591-11.262 13.049-24.677 18.416-29.438 11.997-10.642 28.846-21.752 44.145-36.096 14.106-13.226 26.874-28.191 37.896-44.758 22.087-33.197 37.388-67.027 38.893-84.604 2.6302-30.728-17.777-36.596-17.777-36.596-43.733-15.187-61.698-42.051-72.41-57.289-10.457-14.875-12.18-23.092-12.18-23.092 33.507 3.7829 79.517-4.4213 111.59-31.988 18.161-15.608 29.948-36.511 40.811-56.877z" style="paint-order:markers fill stroke"/>
    <path transform="matrix(.26458 0 0 .26458 368.36 47.097)" d="m1428.2 933.11-178.52-178.52c1.4555 9.1613 3.329 18.298 5.7793 27.4-0.5952 0.11717-25.593-3.8441-35.799-26.031 5.6729 18.775 5.2205 29.74 29.492 51.234-4.1335-0.36548-28.019 1.2309-36.998-26.465-1.4346-0.23357 9.911 32.726 32.98 50.471-1.1383 3.4147-33.454-2.391-38.914-28.842 2.9464 15.964 12.14 17.728 19.217 52.912 57.54 47.204 128.69 74.415 202.76 77.838z" style="paint-order:markers fill stroke"/>
    <path transform="matrix(.26458 0 0 .26458 368.36 47.097)" d="m1674.7 844.64c18.381-16.583 35.116-35.235 49.779-55.809 20.157 4.0276 40.675 6.0874 61.25 6.1504 171.3 6.8e-4 310.16-135.49 310.16-302.63s-138.87-302.63-310.16-302.63c-4.2415 0.0695-8.4819 0.22382-12.717 0.46289-56.364-116.3-174.23-190.16-303.47-190.17-4.8476 0.0028858-9.6754 0.14779-14.492 0.35742z" style="paint-order:markers fill stroke"/>
    <path transform="matrix(.26458 0 0 .26458 368.36 47.097)" d="m1257.4 75.258c-26.675 21.615-50.23 47.439-69.578 76.908-36.264-54.955-91.155-93.699-153.29-110.17l-73.277 126.92 138.82 138.82c31.253-34.4 62.505-73.827 93.758-101.01v4e-3c44.199 9.5488 61.081 42.038 61.644 77.492-4.7441-1.991-10.266-5.8753-13.857-0.73828 0 0-23.108 66.294-26.35 81.143-3.2416 14.848 13.07 9.0938 13.07 9.0938l38.584-38.061 0.2109-17.984 12.83 10.42c0.5069-0.0189 1.0119-0.0268 1.5039-0.0117v4e-3c3.1888 0.082 5.9982 0.71843 8.1523 1.4648l2.1934 0.14844c0.1889 0.21846 0.335 0.44669 0.5175 0.66602 13.759 3.7658 17.418 26.562 14.779 51.916-3.9285 36.763-12.351 73.775-21.658 110.83l109.02 109.02z" style="paint-order:markers fill stroke"/>
    <path transform="matrix(.26458 0 0 .26458 368.36 47.097)" d="m773.99 72.873c-55.942-46.795-127.46-72.871-201.85-72.873-143.16 0.056315-267.68 95.714-301.34 231.48-154.75 19.315-270.71 147.78-270.81 300.01-2.6457e-4 167.14 138.86 302.63 310.16 302.63 8.3428-9e-3 16.66-0.42585 24.949-1.0879z" style="paint-order:markers fill stroke"/>
   </g>
   <path transform="matrix(.26458 0 0 .26458 368.36 47.097)" d="m1455 0.36133c-72.969 3.1756-142.09 29.872-197.66 74.896l137.07 526.87-109.02-109.02c-22.054 87.797-49.319 175.84-35.713 261.48l178.52 178.52c5.2205 0.24113 10.454 0.38136 15.699 0.38476 76.991-0.054 150.68-25.827 210.2-71.684 7.0612-5.44 13.908-11.181 20.553-17.176zm-488.39 32.766c-61.877 0.056315-121.79 21.762-169.34 61.357-7.4092-7.6299-15.189-14.835-23.291-21.611l-438.88 760.16c31.657-2.5284 62.789-9.712 92.273-21.496 40.177 26.765 86.085 43.774 133.93 49.994l291.11-504.21 76.055 76.055c8.1867-15.349 15.882-30.445 25.197-42.443 8.1927-10.552 17.937-22.869 31.576-32.014 13.639-9.1451 29.592-15.808 44.822-19.684 11.367-2.8924 28.339-4.9893 39.934-7.6699 5.9501-1.3758 23.405-16.269 24.297-17.531 1.9075-2.0577 3.8151-4.205 5.7226-6.3047l-138.82-138.82 73.277-126.92c-21.889-5.8027-44.668-8.8654-67.861-8.8672z" fill="url(#linearGradient302)" style="paint-order:markers fill stroke"/>
  </g>
 </g>
 <metadata>
  <rdf:RDF>
   <cc:Work rdf:about="">
    <dc:title>logo_cw_role</dc:title>
    <dc:creator>
     <cc:Agent>
      <dc:title>Officer K aka LxWulf</dc:title>
     </cc:Agent>
    </dc:creator>
    <dc:description>Logo for CW-Role v1.0</dc:description>
    <dc:contributor>
     <cc:Agent>
      <dc:title>LxWulf</dc:title>
     </cc:Agent>
    </dc:contributor>
    <dc:rights>
     <cc:Agent>
      <dc:title>MIT License</dc:title>
     </cc:Agent>
    </dc:rights>
   </cc:Work>
  </rdf:RDF>
 </metadata>
</svg>
